<svg xmlns="http://www.w3.org/2000/svg" viewBox="0 0 100 100" width="100" height="100" fill="none">
  <!-- Outer glowing rings -->
  <circle cx="50" cy="50" r="46" stroke="#9333ea" stroke-width="2.5" opacity="0.6" />
  <circle cx="50" cy="50" r="43" fill="#070211" stroke="#c084fc" stroke-width="3" />
  <circle cx="50" cy="50" r="40" stroke="#f472b6" stroke-width="1" opacity="0.5" />
  
  <!-- Cyber diagonal slash highlights -->
  <path d="M22 28 L35 15" stroke="#ec4899" stroke-width="2" stroke-linecap="round" opacity="0.7" />
  <path d="M72 78 L85 65" stroke="#a855f7" stroke-width="2" stroke-linecap="round" opacity="0.7" />

  <!-- Chat bubble -->
  <path d="M26 34 C26 28, 30 25, 38 25 L64 25 C72 25, 76 28, 76 34 L76 54 C76 60, 72 63, 64 63 L38 63 L28 73 L30 63 C27 61, 26 58, 26 54 Z" fill="#1e0a3c" stroke="#d8b4fe" stroke-width="3" stroke-linejoin="round" />

  <!-- Star -->
  <path d="M42 42 L44.5 47 L50 47.5 L46 51.5 L47 57 L42 54 L37 57 L38 51.5 L34 47.5 L39.5 47 Z" fill="#f472b6" stroke="#fbcfe8" stroke-width="1.2" />

  <!-- Heart -->
  <path d="M60 41 C57 38, 53 40, 52 43 C51 40, 47 38, 44 41 C41 44, 42 48, 46 52 L52 58 L58 52 C62 48, 63 44, 60 41 Z" fill="#ec4899" stroke="#fbcfe8" stroke-width="1.2" />

  <!-- Sparkle bursts top right -->
  <path d="M73 22 L77 18" stroke="#f472b6" stroke-width="2.5" stroke-linecap="round" />
  <path d="M79 26 L85 26" stroke="#f472b6" stroke-width="2.5" stroke-linecap="round" />
  <path d="M75 32 L81 35" stroke="#f472b6" stroke-width="2.5" stroke-linecap="round" />
</svg>
